<mxfile host="Electron" modified="2024-02-22T10:58:40.854Z" agent="Mozilla/5.0 (X11; Linux x86_64) AppleWebKit/537.36 (KHTML, like Gecko) draw.io/22.1.21 Chrome/120.0.6099.109 Electron/28.1.0 Safari/537.36" etag="j4QZzkLZlTZqevv1HUpe" version="22.1.21" type="device">
  <diagram name="StrÃ¡nka-1" id="-R17Rxxg994STWo3U5HR">
    <mxGraphModel dx="1444" dy="1513" grid="1" gridSize="10" guides="1" tooltips="1" connect="1" arrows="1" fold="1" page="1" pageScale="1" pageWidth="1654" pageHeight="2336" math="1" shadow="0">
      <root>
        <mxCell id="0" />
        <mxCell id="1" parent="0" />
        <mxCell id="11cOeYDU5x_4EBt98abm-20" style="rounded=0;orthogonalLoop=1;jettySize=auto;html=1;entryX=0;entryY=0.5;entryDx=0;entryDy=0;endArrow=none;endFill=0;strokeWidth=5;strokeColor=#454545;curved=0;startArrow=none;startFill=0;exitX=1;exitY=0.5;exitDx=0;exitDy=0;" parent="1" source="11cOeYDU5x_4EBt98abm-2" target="11cOeYDU5x_4EBt98abm-6" edge="1">
          <mxGeometry relative="1" as="geometry" />
        </mxCell>
        <mxCell id="11cOeYDU5x_4EBt98abm-21" style="rounded=0;orthogonalLoop=1;jettySize=auto;html=1;entryX=0;entryY=0.5;entryDx=0;entryDy=0;endArrow=none;endFill=0;strokeWidth=5;strokeColor=#454545;curved=0;startArrow=none;startFill=0;exitX=1;exitY=0.5;exitDx=0;exitDy=0;" parent="1" source="11cOeYDU5x_4EBt98abm-2" target="11cOeYDU5x_4EBt98abm-7" edge="1">
          <mxGeometry relative="1" as="geometry" />
        </mxCell>
        <mxCell id="11cOeYDU5x_4EBt98abm-22" style="rounded=0;orthogonalLoop=1;jettySize=auto;html=1;entryX=0;entryY=0.5;entryDx=0;entryDy=0;endArrow=none;endFill=0;strokeWidth=5;strokeColor=#454545;curved=0;startArrow=none;startFill=0;exitX=1;exitY=0.5;exitDx=0;exitDy=0;" parent="1" source="11cOeYDU5x_4EBt98abm-2" target="11cOeYDU5x_4EBt98abm-8" edge="1">
          <mxGeometry relative="1" as="geometry" />
        </mxCell>
        <mxCell id="11cOeYDU5x_4EBt98abm-23" style="rounded=0;orthogonalLoop=1;jettySize=auto;html=1;entryX=0;entryY=0.5;entryDx=0;entryDy=0;strokeWidth=5;strokeColor=#454545;curved=0;startArrow=none;startFill=0;endArrow=none;endFill=0;exitX=1;exitY=0.5;exitDx=0;exitDy=0;" parent="1" source="11cOeYDU5x_4EBt98abm-2" target="11cOeYDU5x_4EBt98abm-9" edge="1">
          <mxGeometry relative="1" as="geometry" />
        </mxCell>
        <mxCell id="11cOeYDU5x_4EBt98abm-24" style="rounded=0;orthogonalLoop=1;jettySize=auto;html=1;entryX=0;entryY=0.5;entryDx=0;entryDy=0;strokeWidth=5;strokeColor=#454545;curved=0;startArrow=none;startFill=0;endArrow=none;endFill=0;exitX=1;exitY=0.5;exitDx=0;exitDy=0;" parent="1" source="11cOeYDU5x_4EBt98abm-2" target="11cOeYDU5x_4EBt98abm-10" edge="1">
          <mxGeometry relative="1" as="geometry" />
        </mxCell>
        <mxCell id="11cOeYDU5x_4EBt98abm-2" value="" style="ellipse;whiteSpace=wrap;html=1;aspect=fixed;strokeWidth=10;fillColor=none;" parent="1" vertex="1">
          <mxGeometry x="360" y="365" width="80" height="80" as="geometry" />
        </mxCell>
        <mxCell id="11cOeYDU5x_4EBt98abm-25" style="rounded=0;orthogonalLoop=1;jettySize=auto;html=1;entryX=0;entryY=0.5;entryDx=0;entryDy=0;strokeWidth=5;strokeColor=#454545;curved=0;startArrow=none;startFill=0;endArrow=none;endFill=0;exitX=1;exitY=0.5;exitDx=0;exitDy=0;" parent="1" source="11cOeYDU5x_4EBt98abm-3" target="11cOeYDU5x_4EBt98abm-7" edge="1">
          <mxGeometry relative="1" as="geometry" />
        </mxCell>
        <mxCell id="11cOeYDU5x_4EBt98abm-28" style="rounded=0;orthogonalLoop=1;jettySize=auto;html=1;entryX=0;entryY=0.5;entryDx=0;entryDy=0;strokeWidth=5;strokeColor=#454545;curved=0;startArrow=none;startFill=0;endArrow=none;endFill=0;exitX=1;exitY=0.5;exitDx=0;exitDy=0;" parent="1" source="11cOeYDU5x_4EBt98abm-3" target="11cOeYDU5x_4EBt98abm-6" edge="1">
          <mxGeometry relative="1" as="geometry" />
        </mxCell>
        <mxCell id="11cOeYDU5x_4EBt98abm-29" style="rounded=0;orthogonalLoop=1;jettySize=auto;html=1;entryX=0;entryY=0.5;entryDx=0;entryDy=0;strokeWidth=5;strokeColor=#454545;curved=0;startArrow=none;startFill=0;endArrow=none;endFill=0;exitX=1;exitY=0.5;exitDx=0;exitDy=0;" parent="1" source="11cOeYDU5x_4EBt98abm-3" target="11cOeYDU5x_4EBt98abm-9" edge="1">
          <mxGeometry relative="1" as="geometry" />
        </mxCell>
        <mxCell id="11cOeYDU5x_4EBt98abm-30" style="rounded=0;orthogonalLoop=1;jettySize=auto;html=1;entryX=0;entryY=0.5;entryDx=0;entryDy=0;strokeWidth=5;strokeColor=#454545;curved=0;startArrow=none;startFill=0;endArrow=none;endFill=0;exitX=1;exitY=0.5;exitDx=0;exitDy=0;" parent="1" source="11cOeYDU5x_4EBt98abm-3" target="11cOeYDU5x_4EBt98abm-10" edge="1">
          <mxGeometry relative="1" as="geometry" />
        </mxCell>
        <mxCell id="11cOeYDU5x_4EBt98abm-40" style="rounded=0;orthogonalLoop=1;jettySize=auto;html=1;entryX=0;entryY=0.5;entryDx=0;entryDy=0;strokeWidth=5;strokeColor=#454545;curved=0;startArrow=none;startFill=0;endArrow=none;endFill=0;exitX=1;exitY=0.5;exitDx=0;exitDy=0;" parent="1" source="11cOeYDU5x_4EBt98abm-3" target="11cOeYDU5x_4EBt98abm-8" edge="1">
          <mxGeometry relative="1" as="geometry" />
        </mxCell>
        <mxCell id="11cOeYDU5x_4EBt98abm-3" value="" style="ellipse;whiteSpace=wrap;html=1;aspect=fixed;strokeWidth=10;fillColor=none;" parent="1" vertex="1">
          <mxGeometry x="360" y="500" width="80" height="80" as="geometry" />
        </mxCell>
        <mxCell id="11cOeYDU5x_4EBt98abm-26" style="rounded=0;orthogonalLoop=1;jettySize=auto;html=1;entryX=0;entryY=0.5;entryDx=0;entryDy=0;strokeWidth=5;strokeColor=#454545;curved=0;startArrow=none;startFill=0;endArrow=none;endFill=0;exitX=1;exitY=0.5;exitDx=0;exitDy=0;" parent="1" source="11cOeYDU5x_4EBt98abm-4" target="11cOeYDU5x_4EBt98abm-8" edge="1">
          <mxGeometry relative="1" as="geometry" />
        </mxCell>
        <mxCell id="11cOeYDU5x_4EBt98abm-31" style="rounded=0;orthogonalLoop=1;jettySize=auto;html=1;entryX=0;entryY=0.5;entryDx=0;entryDy=0;strokeWidth=5;strokeColor=#454545;curved=0;startArrow=none;startFill=0;endArrow=none;endFill=0;exitX=1;exitY=0.5;exitDx=0;exitDy=0;" parent="1" source="11cOeYDU5x_4EBt98abm-4" target="11cOeYDU5x_4EBt98abm-7" edge="1">
          <mxGeometry relative="1" as="geometry" />
        </mxCell>
        <mxCell id="11cOeYDU5x_4EBt98abm-32" style="rounded=0;orthogonalLoop=1;jettySize=auto;html=1;entryX=0;entryY=0.5;entryDx=0;entryDy=0;strokeWidth=5;strokeColor=#454545;curved=0;startArrow=none;startFill=0;endArrow=none;endFill=0;exitX=1;exitY=0.5;exitDx=0;exitDy=0;" parent="1" source="11cOeYDU5x_4EBt98abm-4" target="11cOeYDU5x_4EBt98abm-6" edge="1">
          <mxGeometry relative="1" as="geometry" />
        </mxCell>
        <mxCell id="11cOeYDU5x_4EBt98abm-33" style="rounded=0;orthogonalLoop=1;jettySize=auto;html=1;entryX=0;entryY=0.5;entryDx=0;entryDy=0;strokeWidth=5;strokeColor=#454545;curved=0;startArrow=none;startFill=0;endArrow=none;endFill=0;exitX=1;exitY=0.5;exitDx=0;exitDy=0;" parent="1" source="11cOeYDU5x_4EBt98abm-4" target="11cOeYDU5x_4EBt98abm-10" edge="1">
          <mxGeometry relative="1" as="geometry" />
        </mxCell>
        <mxCell id="11cOeYDU5x_4EBt98abm-39" style="rounded=0;orthogonalLoop=1;jettySize=auto;html=1;entryX=0;entryY=0.5;entryDx=0;entryDy=0;strokeWidth=5;strokeColor=#454545;curved=0;startArrow=none;startFill=0;endArrow=none;endFill=0;exitX=1;exitY=0.5;exitDx=0;exitDy=0;exitPerimeter=0;" parent="1" source="11cOeYDU5x_4EBt98abm-4" target="11cOeYDU5x_4EBt98abm-9" edge="1">
          <mxGeometry relative="1" as="geometry" />
        </mxCell>
        <mxCell id="11cOeYDU5x_4EBt98abm-4" value="" style="ellipse;whiteSpace=wrap;html=1;aspect=fixed;strokeWidth=10;fillColor=none;" parent="1" vertex="1">
          <mxGeometry x="360" y="635" width="80" height="80" as="geometry" />
        </mxCell>
        <mxCell id="11cOeYDU5x_4EBt98abm-34" style="rounded=0;orthogonalLoop=1;jettySize=auto;html=1;entryX=0;entryY=0.5;entryDx=0;entryDy=0;strokeWidth=5;strokeColor=#454545;curved=0;startArrow=none;startFill=0;endArrow=none;endFill=0;exitX=1;exitY=0.5;exitDx=0;exitDy=0;" parent="1" source="11cOeYDU5x_4EBt98abm-5" target="11cOeYDU5x_4EBt98abm-10" edge="1">
          <mxGeometry relative="1" as="geometry" />
        </mxCell>
        <mxCell id="11cOeYDU5x_4EBt98abm-35" style="rounded=0;orthogonalLoop=1;jettySize=auto;html=1;entryX=0;entryY=0.5;entryDx=0;entryDy=0;strokeWidth=5;strokeColor=#454545;curved=0;startArrow=none;startFill=0;endArrow=none;endFill=0;exitX=1.069;exitY=0.483;exitDx=0;exitDy=0;exitPerimeter=0;" parent="1" source="11cOeYDU5x_4EBt98abm-5" target="11cOeYDU5x_4EBt98abm-9" edge="1">
          <mxGeometry relative="1" as="geometry" />
        </mxCell>
        <mxCell id="11cOeYDU5x_4EBt98abm-36" style="rounded=0;orthogonalLoop=1;jettySize=auto;html=1;entryX=0;entryY=0.5;entryDx=0;entryDy=0;strokeWidth=5;strokeColor=#454545;curved=0;startArrow=none;startFill=0;endArrow=none;endFill=0;exitX=1;exitY=0.5;exitDx=0;exitDy=0;" parent="1" source="11cOeYDU5x_4EBt98abm-5" target="11cOeYDU5x_4EBt98abm-8" edge="1">
          <mxGeometry relative="1" as="geometry" />
        </mxCell>
        <mxCell id="11cOeYDU5x_4EBt98abm-37" style="rounded=0;orthogonalLoop=1;jettySize=auto;html=1;entryX=0;entryY=0.5;entryDx=0;entryDy=0;strokeWidth=5;strokeColor=#454545;curved=0;startArrow=none;startFill=0;endArrow=none;endFill=0;exitX=1;exitY=0.5;exitDx=0;exitDy=0;" parent="1" source="11cOeYDU5x_4EBt98abm-5" target="11cOeYDU5x_4EBt98abm-7" edge="1">
          <mxGeometry relative="1" as="geometry" />
        </mxCell>
        <mxCell id="11cOeYDU5x_4EBt98abm-38" style="rounded=0;orthogonalLoop=1;jettySize=auto;html=1;entryX=0;entryY=0.5;entryDx=0;entryDy=0;strokeWidth=5;strokeColor=#454545;curved=0;startArrow=none;startFill=0;endArrow=none;endFill=0;exitX=1;exitY=0.5;exitDx=0;exitDy=0;" parent="1" source="11cOeYDU5x_4EBt98abm-5" target="11cOeYDU5x_4EBt98abm-6" edge="1">
          <mxGeometry relative="1" as="geometry" />
        </mxCell>
        <mxCell id="11cOeYDU5x_4EBt98abm-5" value="" style="ellipse;whiteSpace=wrap;html=1;aspect=fixed;strokeWidth=10;fillColor=none;" parent="1" vertex="1">
          <mxGeometry x="360" y="780" width="80" height="80" as="geometry" />
        </mxCell>
        <mxCell id="11cOeYDU5x_4EBt98abm-41" style="rounded=0;orthogonalLoop=1;jettySize=auto;html=1;entryX=0;entryY=0.5;entryDx=0;entryDy=0;strokeWidth=5;endArrow=none;endFill=0;strokeColor=#454545;" parent="1" source="11cOeYDU5x_4EBt98abm-6" target="11cOeYDU5x_4EBt98abm-11" edge="1">
          <mxGeometry relative="1" as="geometry" />
        </mxCell>
        <mxCell id="11cOeYDU5x_4EBt98abm-42" style="rounded=0;orthogonalLoop=1;jettySize=auto;html=1;entryX=0;entryY=0.5;entryDx=0;entryDy=0;strokeWidth=5;endArrow=none;endFill=0;strokeColor=#454545;exitX=1;exitY=0.5;exitDx=0;exitDy=0;" parent="1" source="11cOeYDU5x_4EBt98abm-6" target="11cOeYDU5x_4EBt98abm-12" edge="1">
          <mxGeometry relative="1" as="geometry" />
        </mxCell>
        <mxCell id="11cOeYDU5x_4EBt98abm-43" style="rounded=0;orthogonalLoop=1;jettySize=auto;html=1;entryX=0;entryY=0.5;entryDx=0;entryDy=0;strokeWidth=5;endArrow=none;endFill=0;strokeColor=#454545;exitX=1;exitY=0.5;exitDx=0;exitDy=0;" parent="1" source="11cOeYDU5x_4EBt98abm-6" target="11cOeYDU5x_4EBt98abm-13" edge="1">
          <mxGeometry relative="1" as="geometry" />
        </mxCell>
        <mxCell id="11cOeYDU5x_4EBt98abm-44" style="rounded=0;orthogonalLoop=1;jettySize=auto;html=1;entryX=0;entryY=0.5;entryDx=0;entryDy=0;strokeWidth=5;endArrow=none;endFill=0;strokeColor=#454545;exitX=1;exitY=0.5;exitDx=0;exitDy=0;" parent="1" source="11cOeYDU5x_4EBt98abm-6" target="11cOeYDU5x_4EBt98abm-14" edge="1">
          <mxGeometry relative="1" as="geometry" />
        </mxCell>
        <mxCell id="11cOeYDU5x_4EBt98abm-45" style="rounded=0;orthogonalLoop=1;jettySize=auto;html=1;entryX=0;entryY=0.5;entryDx=0;entryDy=0;strokeWidth=5;endArrow=none;endFill=0;strokeColor=#454545;exitX=1;exitY=0.5;exitDx=0;exitDy=0;" parent="1" source="11cOeYDU5x_4EBt98abm-6" target="11cOeYDU5x_4EBt98abm-15" edge="1">
          <mxGeometry relative="1" as="geometry" />
        </mxCell>
        <mxCell id="11cOeYDU5x_4EBt98abm-6" value="" style="ellipse;whiteSpace=wrap;html=1;aspect=fixed;strokeWidth=10;fillColor=#0A0A0A;" parent="1" vertex="1">
          <mxGeometry x="660" y="260" width="80" height="80" as="geometry" />
        </mxCell>
        <mxCell id="11cOeYDU5x_4EBt98abm-46" style="rounded=0;orthogonalLoop=1;jettySize=auto;html=1;entryX=0;entryY=0.5;entryDx=0;entryDy=0;strokeWidth=5;endArrow=none;endFill=0;strokeColor=#454545;exitX=1;exitY=0.5;exitDx=0;exitDy=0;" parent="1" source="11cOeYDU5x_4EBt98abm-7" target="11cOeYDU5x_4EBt98abm-11" edge="1">
          <mxGeometry relative="1" as="geometry" />
        </mxCell>
        <mxCell id="11cOeYDU5x_4EBt98abm-47" style="rounded=0;orthogonalLoop=1;jettySize=auto;html=1;strokeWidth=5;endArrow=none;endFill=0;strokeColor=#454545;exitX=1;exitY=0.5;exitDx=0;exitDy=0;" parent="1" source="11cOeYDU5x_4EBt98abm-7" target="11cOeYDU5x_4EBt98abm-12" edge="1">
          <mxGeometry relative="1" as="geometry" />
        </mxCell>
        <mxCell id="11cOeYDU5x_4EBt98abm-48" style="rounded=0;orthogonalLoop=1;jettySize=auto;html=1;entryX=0;entryY=0.5;entryDx=0;entryDy=0;strokeWidth=5;endArrow=none;endFill=0;strokeColor=#454545;exitX=1;exitY=0.5;exitDx=0;exitDy=0;" parent="1" source="11cOeYDU5x_4EBt98abm-7" target="11cOeYDU5x_4EBt98abm-13" edge="1">
          <mxGeometry relative="1" as="geometry" />
        </mxCell>
        <mxCell id="11cOeYDU5x_4EBt98abm-49" style="rounded=0;orthogonalLoop=1;jettySize=auto;html=1;entryX=0;entryY=0.5;entryDx=0;entryDy=0;strokeWidth=5;endArrow=none;endFill=0;strokeColor=#454545;exitX=1;exitY=0.5;exitDx=0;exitDy=0;" parent="1" source="11cOeYDU5x_4EBt98abm-7" target="11cOeYDU5x_4EBt98abm-14" edge="1">
          <mxGeometry relative="1" as="geometry" />
        </mxCell>
        <mxCell id="11cOeYDU5x_4EBt98abm-50" style="rounded=0;orthogonalLoop=1;jettySize=auto;html=1;entryX=0;entryY=0.5;entryDx=0;entryDy=0;strokeWidth=5;endArrow=none;endFill=0;strokeColor=#454545;exitX=1;exitY=0.5;exitDx=0;exitDy=0;" parent="1" source="11cOeYDU5x_4EBt98abm-7" target="11cOeYDU5x_4EBt98abm-15" edge="1">
          <mxGeometry relative="1" as="geometry" />
        </mxCell>
        <mxCell id="11cOeYDU5x_4EBt98abm-7" value="" style="ellipse;whiteSpace=wrap;html=1;aspect=fixed;strokeWidth=10;fillColor=#0A0A0A;" parent="1" vertex="1">
          <mxGeometry x="660" y="400" width="80" height="80" as="geometry" />
        </mxCell>
        <mxCell id="11cOeYDU5x_4EBt98abm-51" style="rounded=0;orthogonalLoop=1;jettySize=auto;html=1;entryX=0;entryY=0.5;entryDx=0;entryDy=0;strokeWidth=5;endArrow=none;endFill=0;strokeColor=#454545;exitX=1;exitY=0.5;exitDx=0;exitDy=0;" parent="1" source="11cOeYDU5x_4EBt98abm-8" target="11cOeYDU5x_4EBt98abm-11" edge="1">
          <mxGeometry relative="1" as="geometry" />
        </mxCell>
        <mxCell id="11cOeYDU5x_4EBt98abm-52" style="rounded=0;orthogonalLoop=1;jettySize=auto;html=1;entryX=0;entryY=0.5;entryDx=0;entryDy=0;strokeWidth=5;endArrow=none;endFill=0;strokeColor=#454545;exitX=1;exitY=0.5;exitDx=0;exitDy=0;" parent="1" source="11cOeYDU5x_4EBt98abm-8" target="11cOeYDU5x_4EBt98abm-12" edge="1">
          <mxGeometry relative="1" as="geometry" />
        </mxCell>
        <mxCell id="11cOeYDU5x_4EBt98abm-53" style="rounded=0;orthogonalLoop=1;jettySize=auto;html=1;entryX=0;entryY=0.5;entryDx=0;entryDy=0;strokeWidth=5;endArrow=none;endFill=0;strokeColor=#454545;" parent="1" source="11cOeYDU5x_4EBt98abm-8" target="11cOeYDU5x_4EBt98abm-13" edge="1">
          <mxGeometry relative="1" as="geometry" />
        </mxCell>
        <mxCell id="11cOeYDU5x_4EBt98abm-54" style="rounded=0;orthogonalLoop=1;jettySize=auto;html=1;entryX=0;entryY=0.5;entryDx=0;entryDy=0;strokeWidth=5;endArrow=none;endFill=0;strokeColor=#454545;exitX=1;exitY=0.5;exitDx=0;exitDy=0;" parent="1" source="11cOeYDU5x_4EBt98abm-8" target="11cOeYDU5x_4EBt98abm-14" edge="1">
          <mxGeometry relative="1" as="geometry" />
        </mxCell>
        <mxCell id="11cOeYDU5x_4EBt98abm-55" style="rounded=0;orthogonalLoop=1;jettySize=auto;html=1;entryX=0;entryY=0.5;entryDx=0;entryDy=0;strokeWidth=5;endArrow=none;endFill=0;strokeColor=#454545;exitX=1;exitY=0.5;exitDx=0;exitDy=0;" parent="1" source="11cOeYDU5x_4EBt98abm-8" target="11cOeYDU5x_4EBt98abm-15" edge="1">
          <mxGeometry relative="1" as="geometry" />
        </mxCell>
        <mxCell id="11cOeYDU5x_4EBt98abm-8" value="" style="ellipse;whiteSpace=wrap;html=1;aspect=fixed;strokeWidth=10;fillColor=#0A0A0A;" parent="1" vertex="1">
          <mxGeometry x="660" y="550" width="80" height="80" as="geometry" />
        </mxCell>
        <mxCell id="11cOeYDU5x_4EBt98abm-56" style="rounded=0;orthogonalLoop=1;jettySize=auto;html=1;entryX=0;entryY=0.5;entryDx=0;entryDy=0;strokeWidth=5;endArrow=none;endFill=0;strokeColor=#454545;exitX=1;exitY=0.5;exitDx=0;exitDy=0;" parent="1" source="11cOeYDU5x_4EBt98abm-9" target="11cOeYDU5x_4EBt98abm-11" edge="1">
          <mxGeometry relative="1" as="geometry" />
        </mxCell>
        <mxCell id="11cOeYDU5x_4EBt98abm-57" style="rounded=0;orthogonalLoop=1;jettySize=auto;html=1;entryX=0;entryY=0.5;entryDx=0;entryDy=0;strokeWidth=5;endArrow=none;endFill=0;strokeColor=#454545;exitX=1;exitY=0.5;exitDx=0;exitDy=0;" parent="1" source="11cOeYDU5x_4EBt98abm-9" target="11cOeYDU5x_4EBt98abm-12" edge="1">
          <mxGeometry relative="1" as="geometry" />
        </mxCell>
        <mxCell id="11cOeYDU5x_4EBt98abm-58" style="rounded=0;orthogonalLoop=1;jettySize=auto;html=1;entryX=0;entryY=0.5;entryDx=0;entryDy=0;strokeWidth=5;endArrow=none;endFill=0;strokeColor=#454545;exitX=1;exitY=0.5;exitDx=0;exitDy=0;" parent="1" source="11cOeYDU5x_4EBt98abm-9" target="11cOeYDU5x_4EBt98abm-13" edge="1">
          <mxGeometry relative="1" as="geometry" />
        </mxCell>
        <mxCell id="11cOeYDU5x_4EBt98abm-59" style="rounded=0;orthogonalLoop=1;jettySize=auto;html=1;entryX=0;entryY=0.5;entryDx=0;entryDy=0;strokeWidth=5;endArrow=none;endFill=0;strokeColor=#454545;" parent="1" source="11cOeYDU5x_4EBt98abm-9" target="11cOeYDU5x_4EBt98abm-14" edge="1">
          <mxGeometry relative="1" as="geometry" />
        </mxCell>
        <mxCell id="11cOeYDU5x_4EBt98abm-60" style="rounded=0;orthogonalLoop=1;jettySize=auto;html=1;entryX=0;entryY=0.5;entryDx=0;entryDy=0;strokeWidth=5;endArrow=none;endFill=0;strokeColor=#454545;exitX=1;exitY=0.5;exitDx=0;exitDy=0;" parent="1" source="11cOeYDU5x_4EBt98abm-9" target="11cOeYDU5x_4EBt98abm-15" edge="1">
          <mxGeometry relative="1" as="geometry" />
        </mxCell>
        <mxCell id="11cOeYDU5x_4EBt98abm-9" value="" style="ellipse;whiteSpace=wrap;html=1;aspect=fixed;strokeWidth=10;fillColor=#0A0A0A;" parent="1" vertex="1">
          <mxGeometry x="660" y="700" width="80" height="80" as="geometry" />
        </mxCell>
        <mxCell id="11cOeYDU5x_4EBt98abm-61" style="rounded=0;orthogonalLoop=1;jettySize=auto;html=1;entryX=0;entryY=0.5;entryDx=0;entryDy=0;strokeWidth=5;endArrow=none;endFill=0;strokeColor=#454545;" parent="1" source="11cOeYDU5x_4EBt98abm-10" target="11cOeYDU5x_4EBt98abm-15" edge="1">
          <mxGeometry relative="1" as="geometry" />
        </mxCell>
        <mxCell id="11cOeYDU5x_4EBt98abm-62" style="rounded=0;orthogonalLoop=1;jettySize=auto;html=1;entryX=0;entryY=0.5;entryDx=0;entryDy=0;strokeWidth=5;endArrow=none;endFill=0;strokeColor=#454545;exitX=1;exitY=0.5;exitDx=0;exitDy=0;" parent="1" source="11cOeYDU5x_4EBt98abm-10" target="11cOeYDU5x_4EBt98abm-14" edge="1">
          <mxGeometry relative="1" as="geometry" />
        </mxCell>
        <mxCell id="11cOeYDU5x_4EBt98abm-63" style="rounded=0;orthogonalLoop=1;jettySize=auto;html=1;entryX=0;entryY=0.5;entryDx=0;entryDy=0;strokeWidth=5;endArrow=none;endFill=0;strokeColor=#454545;exitX=1;exitY=0.5;exitDx=0;exitDy=0;" parent="1" source="11cOeYDU5x_4EBt98abm-10" target="11cOeYDU5x_4EBt98abm-13" edge="1">
          <mxGeometry relative="1" as="geometry" />
        </mxCell>
        <mxCell id="11cOeYDU5x_4EBt98abm-64" style="rounded=0;orthogonalLoop=1;jettySize=auto;html=1;entryX=0;entryY=0.5;entryDx=0;entryDy=0;strokeWidth=5;endArrow=none;endFill=0;strokeColor=#454545;exitX=1;exitY=0.5;exitDx=0;exitDy=0;" parent="1" source="11cOeYDU5x_4EBt98abm-10" target="11cOeYDU5x_4EBt98abm-12" edge="1">
          <mxGeometry relative="1" as="geometry" />
        </mxCell>
        <mxCell id="11cOeYDU5x_4EBt98abm-65" style="rounded=0;orthogonalLoop=1;jettySize=auto;html=1;entryX=0;entryY=0.5;entryDx=0;entryDy=0;strokeWidth=5;endArrow=none;endFill=0;strokeColor=#454545;exitX=1;exitY=0.5;exitDx=0;exitDy=0;" parent="1" source="11cOeYDU5x_4EBt98abm-10" target="11cOeYDU5x_4EBt98abm-11" edge="1">
          <mxGeometry relative="1" as="geometry" />
        </mxCell>
        <mxCell id="11cOeYDU5x_4EBt98abm-10" value="" style="ellipse;whiteSpace=wrap;html=1;aspect=fixed;strokeWidth=10;fillColor=#0A0A0A;" parent="1" vertex="1">
          <mxGeometry x="660" y="850" width="80" height="80" as="geometry" />
        </mxCell>
        <mxCell id="11cOeYDU5x_4EBt98abm-66" style="rounded=0;orthogonalLoop=1;jettySize=auto;html=1;entryX=0;entryY=0.5;entryDx=0;entryDy=0;endArrow=none;endFill=0;strokeWidth=5;strokeColor=#454545;exitX=1;exitY=0.5;exitDx=0;exitDy=0;" parent="1" source="11cOeYDU5x_4EBt98abm-11" target="11cOeYDU5x_4EBt98abm-16" edge="1">
          <mxGeometry relative="1" as="geometry" />
        </mxCell>
        <mxCell id="11cOeYDU5x_4EBt98abm-67" style="rounded=0;orthogonalLoop=1;jettySize=auto;html=1;entryX=0;entryY=0.5;entryDx=0;entryDy=0;endArrow=none;endFill=0;strokeWidth=5;strokeColor=#454545;exitX=1;exitY=0.5;exitDx=0;exitDy=0;" parent="1" source="11cOeYDU5x_4EBt98abm-11" target="11cOeYDU5x_4EBt98abm-17" edge="1">
          <mxGeometry relative="1" as="geometry" />
        </mxCell>
        <mxCell id="11cOeYDU5x_4EBt98abm-11" value="" style="ellipse;whiteSpace=wrap;html=1;aspect=fixed;strokeWidth=10;fillColor=#000000;strokeColor=default;" parent="1" vertex="1">
          <mxGeometry x="990" y="260" width="80" height="80" as="geometry" />
        </mxCell>
        <mxCell id="11cOeYDU5x_4EBt98abm-68" style="rounded=0;orthogonalLoop=1;jettySize=auto;html=1;endArrow=none;endFill=0;strokeWidth=5;strokeColor=#454545;entryX=0;entryY=0.5;entryDx=0;entryDy=0;" parent="1" source="11cOeYDU5x_4EBt98abm-12" target="11cOeYDU5x_4EBt98abm-16" edge="1">
          <mxGeometry relative="1" as="geometry" />
        </mxCell>
        <mxCell id="11cOeYDU5x_4EBt98abm-69" style="rounded=0;orthogonalLoop=1;jettySize=auto;html=1;entryX=0;entryY=0.5;entryDx=0;entryDy=0;endArrow=none;endFill=0;strokeWidth=5;strokeColor=#454545;exitX=1;exitY=0.5;exitDx=0;exitDy=0;" parent="1" source="11cOeYDU5x_4EBt98abm-12" target="11cOeYDU5x_4EBt98abm-17" edge="1">
          <mxGeometry relative="1" as="geometry" />
        </mxCell>
        <mxCell id="11cOeYDU5x_4EBt98abm-12" value="" style="ellipse;whiteSpace=wrap;html=1;aspect=fixed;strokeWidth=10;fillColor=#000000;" parent="1" vertex="1">
          <mxGeometry x="990" y="400" width="80" height="80" as="geometry" />
        </mxCell>
        <mxCell id="11cOeYDU5x_4EBt98abm-70" style="rounded=0;orthogonalLoop=1;jettySize=auto;html=1;entryX=0;entryY=0.5;entryDx=0;entryDy=0;endArrow=none;endFill=0;strokeWidth=5;strokeColor=#454545;exitX=1;exitY=0.5;exitDx=0;exitDy=0;" parent="1" source="11cOeYDU5x_4EBt98abm-13" target="11cOeYDU5x_4EBt98abm-17" edge="1">
          <mxGeometry relative="1" as="geometry" />
        </mxCell>
        <mxCell id="11cOeYDU5x_4EBt98abm-13" value="" style="ellipse;whiteSpace=wrap;html=1;aspect=fixed;strokeWidth=10;fillColor=#000000;" parent="1" vertex="1">
          <mxGeometry x="990" y="550" width="80" height="80" as="geometry" />
        </mxCell>
        <mxCell id="11cOeYDU5x_4EBt98abm-71" style="rounded=0;orthogonalLoop=1;jettySize=auto;html=1;entryX=0;entryY=0.5;entryDx=0;entryDy=0;endArrow=none;endFill=0;strokeWidth=5;strokeColor=#454545;exitX=1;exitY=0.5;exitDx=0;exitDy=0;" parent="1" source="11cOeYDU5x_4EBt98abm-14" target="11cOeYDU5x_4EBt98abm-16" edge="1">
          <mxGeometry relative="1" as="geometry" />
        </mxCell>
        <mxCell id="11cOeYDU5x_4EBt98abm-72" style="rounded=0;orthogonalLoop=1;jettySize=auto;html=1;entryX=0;entryY=0.5;entryDx=0;entryDy=0;endArrow=none;endFill=0;strokeWidth=5;strokeColor=#454545;" parent="1" source="11cOeYDU5x_4EBt98abm-14" target="11cOeYDU5x_4EBt98abm-17" edge="1">
          <mxGeometry relative="1" as="geometry" />
        </mxCell>
        <mxCell id="11cOeYDU5x_4EBt98abm-14" value="" style="ellipse;whiteSpace=wrap;html=1;aspect=fixed;strokeWidth=10;fillColor=#000000;" parent="1" vertex="1">
          <mxGeometry x="990" y="700" width="80" height="80" as="geometry" />
        </mxCell>
        <mxCell id="11cOeYDU5x_4EBt98abm-73" style="rounded=0;orthogonalLoop=1;jettySize=auto;html=1;entryX=0;entryY=0.5;entryDx=0;entryDy=0;endArrow=none;endFill=0;strokeWidth=5;strokeColor=#454545;" parent="1" source="11cOeYDU5x_4EBt98abm-15" target="11cOeYDU5x_4EBt98abm-17" edge="1">
          <mxGeometry relative="1" as="geometry" />
        </mxCell>
        <mxCell id="11cOeYDU5x_4EBt98abm-74" style="rounded=0;orthogonalLoop=1;jettySize=auto;html=1;entryX=0;entryY=0.5;entryDx=0;entryDy=0;endArrow=none;endFill=0;strokeWidth=5;strokeColor=#454545;exitX=0.944;exitY=0.192;exitDx=0;exitDy=0;exitPerimeter=0;" parent="1" source="11cOeYDU5x_4EBt98abm-15" target="11cOeYDU5x_4EBt98abm-16" edge="1">
          <mxGeometry relative="1" as="geometry" />
        </mxCell>
        <mxCell id="11cOeYDU5x_4EBt98abm-15" value="" style="ellipse;whiteSpace=wrap;html=1;aspect=fixed;strokeWidth=10;fillColor=#000000;" parent="1" vertex="1">
          <mxGeometry x="990" y="850" width="80" height="80" as="geometry" />
        </mxCell>
        <mxCell id="11cOeYDU5x_4EBt98abm-16" value="" style="ellipse;whiteSpace=wrap;html=1;aspect=fixed;strokeWidth=10;fillColor=none;" parent="1" vertex="1">
          <mxGeometry x="1300" y="434" width="80" height="80" as="geometry" />
        </mxCell>
        <mxCell id="11cOeYDU5x_4EBt98abm-17" value="" style="ellipse;whiteSpace=wrap;html=1;aspect=fixed;strokeWidth=10;fillColor=none;" parent="1" vertex="1">
          <mxGeometry x="1300" y="685" width="80" height="80" as="geometry" />
        </mxCell>
        <mxCell id="11cOeYDU5x_4EBt98abm-75" value="&lt;font style=&quot;font-size: 40px;&quot;&gt;\(x\)&lt;/font&gt;" style="text;html=1;strokeColor=none;fillColor=none;align=center;verticalAlign=middle;whiteSpace=wrap;rounded=0;" parent="1" vertex="1">
          <mxGeometry x="350" y="310" width="100" height="30" as="geometry" />
        </mxCell>
        <mxCell id="11cOeYDU5x_4EBt98abm-76" value="&lt;font style=&quot;font-size: 40px;&quot;&gt;\(f_1(x)\)&lt;/font&gt;" style="text;html=1;strokeColor=none;fillColor=none;align=center;verticalAlign=middle;whiteSpace=wrap;rounded=0;" parent="1" vertex="1">
          <mxGeometry x="510" y="285" width="60" height="30" as="geometry" />
        </mxCell>
        <mxCell id="11cOeYDU5x_4EBt98abm-77" value="&lt;font style=&quot;font-size: 40px;&quot;&gt;\(f_2(f_1(x))\)&lt;/font&gt;" style="text;html=1;strokeColor=none;fillColor=none;align=center;verticalAlign=middle;whiteSpace=wrap;rounded=0;" parent="1" vertex="1">
          <mxGeometry x="835" y="240" width="60" height="30" as="geometry" />
        </mxCell>
        <mxCell id="11cOeYDU5x_4EBt98abm-79" value="&lt;font style=&quot;font-size: 40px;&quot;&gt;\(y\)&lt;/font&gt;" style="text;html=1;strokeColor=none;fillColor=none;align=center;verticalAlign=middle;whiteSpace=wrap;rounded=0;" parent="1" vertex="1">
          <mxGeometry x="1310" y="380" width="60" height="30" as="geometry" />
        </mxCell>
        <mxCell id="11cOeYDU5x_4EBt98abm-80" value="&lt;font style=&quot;font-size: 49px;&quot;&gt;\(f_n(f_2(f_1(x))\)&lt;/font&gt;" style="text;html=1;strokeColor=none;fillColor=none;align=center;verticalAlign=middle;whiteSpace=wrap;rounded=0;" parent="1" vertex="1">
          <mxGeometry x="1150" y="280" width="260" height="30" as="geometry" />
        </mxCell>
        <mxCell id="11cOeYDU5x_4EBt98abm-82" value="&lt;font style=&quot;font-size: 40px;&quot;&gt;\(\text{input layer}\)&lt;/font&gt;" style="text;html=1;strokeColor=none;fillColor=none;align=center;verticalAlign=middle;whiteSpace=wrap;rounded=0;fontFamily=Helvetica;fontStyle=0" parent="1" vertex="1">
          <mxGeometry x="270" y="980" width="260" height="30" as="geometry" />
        </mxCell>
        <mxCell id="11cOeYDU5x_4EBt98abm-83" value="&lt;font style=&quot;font-size: 45px;&quot;&gt;\(\text{hidden layers}\)&lt;/font&gt;" style="text;html=1;strokeColor=none;fillColor=none;align=center;verticalAlign=middle;whiteSpace=wrap;rounded=0;fontFamily=Helvetica;fontStyle=0" parent="1" vertex="1">
          <mxGeometry x="710" y="980" width="310" height="30" as="geometry" />
        </mxCell>
        <mxCell id="11cOeYDU5x_4EBt98abm-85" value="&lt;font style=&quot;font-size: 45px;&quot;&gt;\(\text{output&amp;nbsp;&lt;br&gt;layer}\)&lt;/font&gt;" style="text;html=1;strokeColor=none;fillColor=none;align=center;verticalAlign=middle;whiteSpace=wrap;rounded=0;fontFamily=Helvetica;fontStyle=0" parent="1" vertex="1">
          <mxGeometry x="1290" y="980" width="100" height="30" as="geometry" />
        </mxCell>
        <mxCell id="11cOeYDU5x_4EBt98abm-90" value="&lt;font style=&quot;font-size: 40px;&quot;&gt;\(h_2\)&lt;/font&gt;" style="text;html=1;strokeColor=none;fillColor=none;align=center;verticalAlign=middle;whiteSpace=wrap;rounded=0;" parent="1" vertex="1">
          <mxGeometry x="945" y="210" width="170" height="30" as="geometry" />
        </mxCell>
        <mxCell id="11cOeYDU5x_4EBt98abm-91" value="&lt;font style=&quot;font-size: 40px;&quot;&gt;\(h_1\)&lt;/font&gt;" style="text;html=1;strokeColor=none;fillColor=none;align=center;verticalAlign=middle;whiteSpace=wrap;rounded=0;" parent="1" vertex="1">
          <mxGeometry x="650" y="210" width="100" height="30" as="geometry" />
        </mxCell>
        <mxCell id="EsmGXlU9-QRWEkeOyz5_-1" style="rounded=0;orthogonalLoop=1;jettySize=auto;html=1;endArrow=none;endFill=0;strokeWidth=5;strokeColor=#454545;exitX=1;exitY=0.5;exitDx=0;exitDy=0;entryX=0;entryY=0.5;entryDx=0;entryDy=0;" parent="1" source="11cOeYDU5x_4EBt98abm-13" target="11cOeYDU5x_4EBt98abm-16" edge="1">
          <mxGeometry relative="1" as="geometry">
            <mxPoint x="1080" y="459" as="sourcePoint" />
            <mxPoint x="1300" y="480" as="targetPoint" />
          </mxGeometry>
        </mxCell>
      </root>
    </mxGraphModel>
  </diagram>
</mxfile>
